<?xml version="1.0" encoding="utf-8"?>
<!-- Generator: Adobe Illustrator 28.0.0, SVG Export Plug-In . SVG Version: 6.00 Build 0)  -->
<svg version="1.1" id="Capa_1" xmlns="http://www.w3.org/2000/svg" xmlns:xlink="http://www.w3.org/1999/xlink" x="0px" y="0px"
	 viewBox="0 0 24 24" style="enable-background:new 0 0 24 24;" xml:space="preserve">
<style type="text/css">
	.st0{fill:#FFFFFF;}
</style>
<g>
	<path class="st0" d="M24,12c0,3.1,0,6.3,0,9.4c0,1.6-0.8,2.5-2.5,2.5c-6.3,0-12.7,0-19,0C0.9,24,0,23.1,0,21.5C0,15.2,0,8.8,0,2.4
		C0,0.9,0.9,0,2.4,0c6.4,0,12.7,0,19.1,0C23.1,0,24,0.9,24,2.5C24,5.7,24,8.9,24,12z M21.1,21.1c0-0.1,0.1-0.2,0.1-0.3
		c0-2.9,0-5.7,0-8.6c0-0.7-0.4-1.5-0.8-2.1c-1.3-2.3-5.5-2.5-7.1-0.9c-0.2,0.2-0.4,0.3-0.6,0.5c0-0.3,0-0.4,0-0.5c0-1-0.1-1-1-1
		c-0.7,0-1.4,0-2.2,0C9,8.1,8.7,8.4,8.7,8.9c0,3.8,0,7.7,0,11.5c0,0.5,0.2,0.7,0.7,0.7c0.7,0,1.5,0,2.2,0c0.7,0,1-0.3,1-1
		c0-2,0-4.1,0-6.1c0-0.5,0.2-1.1,0.4-1.5c0.5-0.8,1.5-1.1,2.4-0.8c1,0.3,1.6,1.1,1.6,2.1c0,2.2,0,4.3,0,6.5c0,0.3,0,0.5,0,0.8
		C18.5,21.1,19.8,21.1,21.1,21.1z M2.8,14.8c0,1.8,0,3.7,0,5.5c0,0.6,0.2,0.8,0.8,0.8c0.8,0,1.6,0,2.4,0c0.5,0,0.7-0.2,0.7-0.7
		c0-3.8,0-7.5,0-11.3c0-0.5-0.3-0.8-0.8-0.7c-0.7,0-1.5,0-2.2,0c-0.7,0-1,0.2-1,0.9C2.9,11.1,2.8,13,2.8,14.8z M4.7,6.3
		c0.9,0,1.7-0.7,1.8-1.7c0-1-0.8-1.8-1.7-1.8c-0.9,0-1.7,0.8-1.7,1.7C3,5.5,3.8,6.3,4.7,6.3z"/>
	<path d="M21.1,21.1c-1.3,0-2.6,0-3.9,0c0-0.3,0-0.5,0-0.8c0-2.2,0-4.3,0-6.5c0-1.1-0.6-1.8-1.6-2.1c-0.9-0.3-1.9,0-2.4,0.8
		c-0.3,0.4-0.4,1-0.4,1.5c0,2,0,4.1,0,6.1c0,0.7-0.2,1-1,1c-0.7,0-1.5,0-2.2,0c-0.5,0-0.7-0.2-0.7-0.7c0-3.8,0-7.7,0-11.5
		c0-0.5,0.2-0.7,0.7-0.7c0.7,0,1.4,0,2.2,0c1,0,1,0.1,1,1c0,0.1,0,0.2,0,0.5c0.3-0.2,0.5-0.4,0.6-0.5c1.6-1.6,5.7-1.4,7.1,0.9
		c0.4,0.6,0.7,1.4,0.8,2.1c0.1,2.9,0,5.7,0,8.6C21.2,20.9,21.1,21,21.1,21.1z"/>
	<path d="M2.8,14.8c0-1.8,0-3.6,0-5.5c0-0.7,0.3-1,1-0.9c0.7,0,1.4,0,2.2,0c0.5,0,0.8,0.2,0.8,0.7c0,3.8,0,7.5,0,11.3
		c0,0.5-0.2,0.7-0.7,0.7c-0.8,0-1.6,0-2.4,0c-0.6,0-0.8-0.3-0.8-0.8C2.8,18.5,2.8,16.6,2.8,14.8z"/>
	<path d="M4.7,6.3C3.8,6.3,3,5.5,3.1,4.6c0-0.9,0.8-1.7,1.7-1.7c1,0,1.8,0.8,1.7,1.8C6.5,5.6,5.7,6.3,4.7,6.3z"/>
</g>
</svg>
